solid 
facet normal 0.0 -0.0 -1.0
    outer loop
        vertex 182.50001525878906 325.6000061035156 0.0
        vertex 182.50001525878906 320.6000061035156 0.0
        vertex 177.50001525878906 320.6000061035156 0.0
    endloop
endfacet
facet normal -0.0 0.0 -1.0
    outer loop
        vertex 182.50001525878906 325.6000061035156 0.0
        vertex 177.50001525878906 320.6000061035156 0.0
        vertex 177.50001525878906 325.6000061035156 0.0
    endloop
endfacet
facet normal 0.0 0.0 1.0
    outer loop
        vertex 182.50001525878906 325.6000061035156 5.0
        vertex 177.50001525878906 325.6000061035156 5.0
        vertex 177.50001525878906 320.6000061035156 5.0
    endloop
endfacet
facet normal 0.0 0.0 1.0
    outer loop
        vertex 182.50001525878906 325.6000061035156 5.0
        vertex 177.50001525878906 320.6000061035156 5.0
        vertex 182.50001525878906 320.6000061035156 5.0
    endloop
endfacet
facet normal 1.0 0.0 -0.0
    outer loop
        vertex 182.50001525878906 325.6000061035156 0.0
        vertex 182.50001525878906 325.6000061035156 5.0
        vertex 182.50001525878906 320.6000061035156 5.0
    endloop
endfacet
facet normal 1.0 0.0 0.0
    outer loop
        vertex 182.50001525878906 325.6000061035156 0.0
        vertex 182.50001525878906 320.6000061035156 5.0
        vertex 182.50001525878906 320.6000061035156 0.0
    endloop
endfacet
facet normal 0.0 -1.0 0.0
    outer loop
        vertex 182.50001525878906 320.6000061035156 0.0
        vertex 182.50001525878906 320.6000061035156 5.0
        vertex 177.50001525878906 320.6000061035156 5.0
    endloop
endfacet
facet normal 0.0 -1.0 0.0
    outer loop
        vertex 182.50001525878906 320.6000061035156 0.0
        vertex 177.50001525878906 320.6000061035156 5.0
        vertex 177.50001525878906 320.6000061035156 0.0
    endloop
endfacet
facet normal -1.0 0.0 0.0
    outer loop
        vertex 177.50001525878906 320.6000061035156 0.0
        vertex 177.50001525878906 320.6000061035156 5.0
        vertex 177.50001525878906 325.6000061035156 5.0
    endloop
endfacet
facet normal -1.0 0.0 0.0
    outer loop
        vertex 177.50001525878906 320.6000061035156 0.0
        vertex 177.50001525878906 325.6000061035156 5.0
        vertex 177.50001525878906 325.6000061035156 0.0
    endloop
endfacet
facet normal 0.0 1.0 0.0
    outer loop
        vertex 182.50001525878906 325.6000061035156 5.0
        vertex 182.50001525878906 325.6000061035156 0.0
        vertex 177.50001525878906 325.6000061035156 0.0
    endloop
endfacet
facet normal 0.0 1.0 0.0
    outer loop
        vertex 182.50001525878906 325.6000061035156 5.0
        vertex 177.50001525878906 325.6000061035156 0.0
        vertex 177.50001525878906 325.6000061035156 5.0
    endloop
endfacet
facet normal 0.0 -0.0 -1.0
    outer loop
        vertex 182.50001525878906 325.6000061035156 5.0
        vertex 182.50001525878906 320.6000061035156 5.0
        vertex 177.50001525878906 320.6000061035156 5.0
    endloop
endfacet
facet normal -0.0 0.0 -1.0
    outer loop
        vertex 182.50001525878906 325.6000061035156 5.0
        vertex 177.50001525878906 320.6000061035156 5.0
        vertex 177.50001525878906 325.6000061035156 5.0
    endloop
endfacet
facet normal 0.0 0.0 1.0
    outer loop
        vertex 182.50001525878906 325.6000061035156 10.0
        vertex 177.50001525878906 325.6000061035156 10.0
        vertex 177.50001525878906 320.6000061035156 10.0
    endloop
endfacet
facet normal 0.0 0.0 1.0
    outer loop
        vertex 182.50001525878906 325.6000061035156 10.0
        vertex 177.50001525878906 320.6000061035156 10.0
        vertex 182.50001525878906 320.6000061035156 10.0
    endloop
endfacet
facet normal 1.0 0.0 -0.0
    outer loop
        vertex 182.50001525878906 325.6000061035156 5.0
        vertex 182.50001525878906 325.6000061035156 10.0
        vertex 182.50001525878906 320.6000061035156 10.0
    endloop
endfacet
facet normal 1.0 0.0 0.0
    outer loop
        vertex 182.50001525878906 325.6000061035156 5.0
        vertex 182.50001525878906 320.6000061035156 10.0
        vertex 182.50001525878906 320.6000061035156 5.0
    endloop
endfacet
facet normal 0.0 -1.0 0.0
    outer loop
        vertex 182.50001525878906 320.6000061035156 5.0
        vertex 182.50001525878906 320.6000061035156 10.0
        vertex 177.50001525878906 320.6000061035156 10.0
    endloop
endfacet
facet normal 0.0 -1.0 0.0
    outer loop
        vertex 182.50001525878906 320.6000061035156 5.0
        vertex 177.50001525878906 320.6000061035156 10.0
        vertex 177.50001525878906 320.6000061035156 5.0
    endloop
endfacet
facet normal -1.0 0.0 0.0
    outer loop
        vertex 177.50001525878906 320.6000061035156 5.0
        vertex 177.50001525878906 320.6000061035156 10.0
        vertex 177.50001525878906 325.6000061035156 10.0
    endloop
endfacet
facet normal -1.0 0.0 0.0
    outer loop
        vertex 177.50001525878906 320.6000061035156 5.0
        vertex 177.50001525878906 325.6000061035156 10.0
        vertex 177.50001525878906 325.6000061035156 5.0
    endloop
endfacet
facet normal 0.0 1.0 0.0
    outer loop
        vertex 182.50001525878906 325.6000061035156 10.0
        vertex 182.50001525878906 325.6000061035156 5.0
        vertex 177.50001525878906 325.6000061035156 5.0
    endloop
endfacet
facet normal 0.0 1.0 0.0
    outer loop
        vertex 182.50001525878906 325.6000061035156 10.0
        vertex 177.50001525878906 325.6000061035156 5.0
        vertex 177.50001525878906 325.6000061035156 10.0
    endloop
endfacet
facet normal 0.0 -0.0 -1.0
    outer loop
        vertex 182.50001525878906 330.6000061035156 5.0
        vertex 182.50001525878906 325.6000061035156 5.0
        vertex 177.50001525878906 325.6000061035156 5.0
    endloop
endfacet
facet normal -0.0 0.0 -1.0
    outer loop
        vertex 182.50001525878906 330.6000061035156 5.0
        vertex 177.50001525878906 325.6000061035156 5.0
        vertex 177.50001525878906 330.6000061035156 5.0
    endloop
endfacet
facet normal 0.0 0.0 1.0
    outer loop
        vertex 182.50001525878906 330.6000061035156 10.0
        vertex 177.50001525878906 330.6000061035156 10.0
        vertex 177.50001525878906 325.6000061035156 10.0
    endloop
endfacet
facet normal 0.0 0.0 1.0
    outer loop
        vertex 182.50001525878906 330.6000061035156 10.0
        vertex 177.50001525878906 325.6000061035156 10.0
        vertex 182.50001525878906 325.6000061035156 10.0
    endloop
endfacet
facet normal 1.0 0.0 -0.0
    outer loop
        vertex 182.50001525878906 330.6000061035156 5.0
        vertex 182.50001525878906 330.6000061035156 10.0
        vertex 182.50001525878906 325.6000061035156 10.0
    endloop
endfacet
facet normal 1.0 0.0 0.0
    outer loop
        vertex 182.50001525878906 330.6000061035156 5.0
        vertex 182.50001525878906 325.6000061035156 10.0
        vertex 182.50001525878906 325.6000061035156 5.0
    endloop
endfacet
facet normal 0.0 -1.0 0.0
    outer loop
        vertex 182.50001525878906 325.6000061035156 5.0
        vertex 182.50001525878906 325.6000061035156 10.0
        vertex 177.50001525878906 325.6000061035156 10.0
    endloop
endfacet
facet normal 0.0 -1.0 0.0
    outer loop
        vertex 182.50001525878906 325.6000061035156 5.0
        vertex 177.50001525878906 325.6000061035156 10.0
        vertex 177.50001525878906 325.6000061035156 5.0
    endloop
endfacet
facet normal -1.0 0.0 0.0
    outer loop
        vertex 177.50001525878906 325.6000061035156 5.0
        vertex 177.50001525878906 325.6000061035156 10.0
        vertex 177.50001525878906 330.6000061035156 10.0
    endloop
endfacet
facet normal -1.0 0.0 0.0
    outer loop
        vertex 177.50001525878906 325.6000061035156 5.0
        vertex 177.50001525878906 330.6000061035156 10.0
        vertex 177.50001525878906 330.6000061035156 5.0
    endloop
endfacet
facet normal 0.0 1.0 0.0
    outer loop
        vertex 182.50001525878906 330.6000061035156 10.0
        vertex 182.50001525878906 330.6000061035156 5.0
        vertex 177.50001525878906 330.6000061035156 5.0
    endloop
endfacet
facet normal 0.0 1.0 0.0
    outer loop
        vertex 182.50001525878906 330.6000061035156 10.0
        vertex 177.50001525878906 330.6000061035156 5.0
        vertex 177.50001525878906 330.6000061035156 10.0
    endloop
endfacet
facet normal 0.0 -0.0 -1.0
    outer loop
        vertex 182.50001525878906 320.6000061035156 5.0
        vertex 182.50001525878906 315.6000061035156 5.0
        vertex 177.50001525878906 315.6000061035156 5.0
    endloop
endfacet
facet normal -0.0 0.0 -1.0
    outer loop
        vertex 182.50001525878906 320.6000061035156 5.0
        vertex 177.50001525878906 315.6000061035156 5.0
        vertex 177.50001525878906 320.6000061035156 5.0
    endloop
endfacet
facet normal 0.0 0.0 1.0
    outer loop
        vertex 182.50001525878906 320.6000061035156 10.0
        vertex 177.50001525878906 320.6000061035156 10.0
        vertex 177.50001525878906 315.6000061035156 10.0
    endloop
endfacet
facet normal 0.0 0.0 1.0
    outer loop
        vertex 182.50001525878906 320.6000061035156 10.0
        vertex 177.50001525878906 315.6000061035156 10.0
        vertex 182.50001525878906 315.6000061035156 10.0
    endloop
endfacet
facet normal 1.0 0.0 -0.0
    outer loop
        vertex 182.50001525878906 320.6000061035156 5.0
        vertex 182.50001525878906 320.6000061035156 10.0
        vertex 182.50001525878906 315.6000061035156 10.0
    endloop
endfacet
facet normal 1.0 0.0 0.0
    outer loop
        vertex 182.50001525878906 320.6000061035156 5.0
        vertex 182.50001525878906 315.6000061035156 10.0
        vertex 182.50001525878906 315.6000061035156 5.0
    endloop
endfacet
facet normal 0.0 -1.0 0.0
    outer loop
        vertex 182.50001525878906 315.6000061035156 5.0
        vertex 182.50001525878906 315.6000061035156 10.0
        vertex 177.50001525878906 315.6000061035156 10.0
    endloop
endfacet
facet normal 0.0 -1.0 0.0
    outer loop
        vertex 182.50001525878906 315.6000061035156 5.0
        vertex 177.50001525878906 315.6000061035156 10.0
        vertex 177.50001525878906 315.6000061035156 5.0
    endloop
endfacet
facet normal -1.0 0.0 0.0
    outer loop
        vertex 177.50001525878906 315.6000061035156 5.0
        vertex 177.50001525878906 315.6000061035156 10.0
        vertex 177.50001525878906 320.6000061035156 10.0
    endloop
endfacet
facet normal -1.0 0.0 0.0
    outer loop
        vertex 177.50001525878906 315.6000061035156 5.0
        vertex 177.50001525878906 320.6000061035156 10.0
        vertex 177.50001525878906 320.6000061035156 5.0
    endloop
endfacet
facet normal 0.0 1.0 0.0
    outer loop
        vertex 182.50001525878906 320.6000061035156 10.0
        vertex 182.50001525878906 320.6000061035156 5.0
        vertex 177.50001525878906 320.6000061035156 5.0
    endloop
endfacet
facet normal 0.0 1.0 0.0
    outer loop
        vertex 182.50001525878906 320.6000061035156 10.0
        vertex 177.50001525878906 320.6000061035156 5.0
        vertex 177.50001525878906 320.6000061035156 10.0
    endloop
endfacet
endsolid 
